<svg width="32" height="32" viewBox="0 0 32 32" fill="none" xmlns="http://www.w3.org/2000/svg">
<path fill-rule="evenodd" clip-rule="evenodd" d="M9.62624 7.99992C8.47424 7.99992 7.39424 8.44525 6.58624 9.25459C4.90891 10.9346 4.90891 13.6693 6.58757 15.3519L15.9996 24.7799L25.4129 15.3519C27.0916 13.6693 27.0916 10.9346 25.4129 9.25459C23.7969 7.63459 20.9489 7.63725 19.3329 9.25459L16.9436 11.6479C16.4422 12.1506 15.5569 12.1506 15.0556 11.6479L12.6662 9.25325C11.8582 8.44525 10.7796 7.99992 9.62624 7.99992ZM15.9996 27.9999C15.6462 27.9999 15.3062 27.8599 15.0569 27.6079L4.69957 17.2346C1.98491 14.5146 1.98491 10.0893 4.69957 7.36925C6.01157 6.05725 7.76091 5.33325 9.62624 5.33325C11.4916 5.33325 13.2422 6.05725 14.5529 7.36925L15.9996 8.81859L17.4462 7.37059C18.7582 6.05725 20.5076 5.33325 22.3742 5.33325C24.2382 5.33325 25.9889 6.05725 27.2996 7.36925C30.0156 10.0893 30.0156 14.5146 27.3009 17.2346L16.9436 27.6093C16.6929 27.8599 16.3542 27.9999 15.9996 27.9999Z" fill="#AA6F34"/>
</svg>
