<svg width="295" height="39" viewBox="0 0 295 39" fill="none" xmlns="http://www.w3.org/2000/svg">
<rect y="39" width="2" height="295" transform="rotate(-90 0 39)" fill="#BDBDBD"/>
<rect x="94" y="39" width="3" height="115" transform="rotate(-90 94 39)" fill="#F9E423"/>
<path d="M18.56 21.14C18.0133 21.14 17.74 20.8533 17.74 20.28V7.62C17.74 7.04667 18.0133 6.76 18.56 6.76C19.1067 6.76 19.38 7.04667 19.38 7.62V13.14H27.84V7.62C27.84 7.04667 28.1133 6.76 28.66 6.76C29.2067 6.76 29.48 7.04667 29.48 7.62V20.28C29.48 20.8533 29.2067 21.14 28.66 21.14C28.1133 21.14 27.84 20.8533 27.84 20.28V14.56H19.38V20.28C19.38 20.8533 19.1067 21.14 18.56 21.14ZM36.9748 21.18C36.0282 21.18 35.2082 20.9733 34.5148 20.56C33.8215 20.1467 33.2815 19.5667 32.8948 18.82C32.5215 18.06 32.3348 17.1667 32.3348 16.14C32.3348 15.1133 32.5215 14.2267 32.8948 13.48C33.2815 12.72 33.8215 12.1333 34.5148 11.72C35.2082 11.3067 36.0282 11.1 36.9748 11.1C37.9082 11.1 38.7215 11.3067 39.4148 11.72C40.1215 12.1333 40.6615 12.72 41.0348 13.48C41.4215 14.2267 41.6148 15.1133 41.6148 16.14C41.6148 17.1667 41.4215 18.06 41.0348 18.82C40.6615 19.5667 40.1215 20.1467 39.4148 20.56C38.7215 20.9733 37.9082 21.18 36.9748 21.18ZM36.9748 19.88C37.8815 19.88 38.6082 19.56 39.1548 18.92C39.7015 18.2667 39.9748 17.34 39.9748 16.14C39.9748 14.9267 39.7015 14 39.1548 13.36C38.6082 12.72 37.8815 12.4 36.9748 12.4C36.0548 12.4 35.3215 12.72 34.7748 13.36C34.2415 14 33.9748 14.9267 33.9748 16.14C33.9748 17.34 34.2415 18.2667 34.7748 18.92C35.3215 19.56 36.0548 19.88 36.9748 19.88ZM45.1081 8.94C44.4015 8.94 44.0481 8.60667 44.0481 7.94C44.0481 7.28667 44.4015 6.96 45.1081 6.96C45.8281 6.96 46.1881 7.28667 46.1881 7.94C46.1881 8.60667 45.8281 8.94 45.1081 8.94ZM42.3881 24.82C42.0548 24.8333 41.8281 24.74 41.7081 24.54C41.5748 24.34 41.5481 24.1267 41.6281 23.9C41.7081 23.6867 41.8815 23.5733 42.1481 23.56C42.8815 23.52 43.4215 23.32 43.7681 22.96C44.1281 22.6133 44.3081 22.06 44.3081 21.3V11.96C44.3081 11.4133 44.5815 11.14 45.1281 11.14C45.6615 11.14 45.9281 11.4133 45.9281 11.96V21.18C45.9281 22.4067 45.6215 23.3067 45.0081 23.88C44.4081 24.4533 43.5348 24.7667 42.3881 24.82ZM53.5547 21.18C52.0214 21.18 50.808 20.7333 49.9147 19.84C49.0214 18.9333 48.5747 17.7067 48.5747 16.16C48.5747 15.16 48.7747 14.28 49.1747 13.52C49.5747 12.7467 50.1214 12.1533 50.8147 11.74C51.5214 11.3133 52.3347 11.1 53.2547 11.1C54.5747 11.1 55.608 11.5267 56.3547 12.38C57.1014 13.22 57.4747 14.38 57.4747 15.86C57.4747 16.2733 57.2414 16.48 56.7747 16.48H50.1547C50.208 17.5867 50.528 18.4333 51.1147 19.02C51.7014 19.5933 52.5147 19.88 53.5547 19.88C53.9947 19.88 54.4414 19.8267 54.8947 19.72C55.348 19.6 55.788 19.3933 56.2147 19.1C56.5214 18.9 56.7747 18.86 56.9747 18.98C57.188 19.1 57.2947 19.2867 57.2947 19.54C57.308 19.78 57.1747 19.9933 56.8947 20.18C56.4547 20.5 55.928 20.7467 55.3147 20.92C54.7147 21.0933 54.128 21.18 53.5547 21.18ZM53.2947 12.3C52.3747 12.3 51.648 12.5867 51.1147 13.16C50.5814 13.7333 50.268 14.4867 50.1747 15.42H56.0747C56.0347 14.4333 55.7747 13.6667 55.2947 13.12C54.828 12.5733 54.1614 12.3 53.2947 12.3Z" fill="#BDBDBD"/>
<path d="M120.34 21.18C119.42 21.18 118.533 21.0733 117.68 20.86C116.84 20.6467 116.107 20.3267 115.48 19.9C115.227 19.7267 115.073 19.52 115.02 19.28C114.967 19.0267 114.987 18.8 115.08 18.6C115.187 18.3867 115.34 18.24 115.54 18.16C115.753 18.08 115.993 18.1267 116.26 18.3C116.86 18.6867 117.493 18.9733 118.16 19.16C118.827 19.3333 119.553 19.42 120.34 19.42C121.473 19.42 122.307 19.22 122.84 18.82C123.387 18.4067 123.66 17.8733 123.66 17.22C123.66 16.6867 123.467 16.2667 123.08 15.96C122.693 15.64 122.047 15.3867 121.14 15.2L119 14.76C117.733 14.4933 116.787 14.0533 116.16 13.44C115.547 12.8267 115.24 12 115.24 10.96C115.24 10.12 115.46 9.38 115.9 8.74C116.353 8.1 116.98 7.60667 117.78 7.26C118.58 6.9 119.5 6.72 120.54 6.72C121.367 6.72 122.14 6.82667 122.86 7.04C123.593 7.25333 124.247 7.58 124.82 8.02C125.047 8.18 125.18 8.37333 125.22 8.6C125.26 8.82667 125.227 9.04 125.12 9.24C125.013 9.42667 124.853 9.55333 124.64 9.62C124.427 9.68667 124.18 9.63333 123.9 9.46C123.38 9.11333 122.847 8.86667 122.3 8.72C121.753 8.56 121.16 8.48 120.52 8.48C119.533 8.48 118.747 8.7 118.16 9.14C117.587 9.58 117.3 10.1667 117.3 10.9C117.3 11.46 117.48 11.9067 117.84 12.24C118.2 12.5733 118.8 12.8267 119.64 13L121.76 13.44C123.093 13.72 124.087 14.1533 124.74 14.74C125.393 15.3133 125.72 16.0933 125.72 17.08C125.72 17.9067 125.5 18.6267 125.06 19.24C124.62 19.8533 124 20.3333 123.2 20.68C122.4 21.0133 121.447 21.18 120.34 21.18ZM132.641 21.18C131.041 21.18 129.781 20.7333 128.861 19.84C127.941 18.9333 127.481 17.7 127.481 16.14C127.481 15.14 127.681 14.26 128.081 13.5C128.495 12.7267 129.061 12.1267 129.781 11.7C130.501 11.2733 131.328 11.06 132.261 11.06C133.608 11.06 134.668 11.4933 135.441 12.36C136.215 13.2133 136.601 14.3933 136.601 15.9C136.601 16.3533 136.335 16.58 135.801 16.58H129.441C129.588 18.6067 130.661 19.62 132.661 19.62C133.061 19.62 133.481 19.5733 133.921 19.48C134.361 19.3733 134.788 19.1867 135.201 18.92C135.481 18.76 135.721 18.7067 135.921 18.76C136.135 18.8 136.288 18.9133 136.381 19.1C136.475 19.2733 136.488 19.4733 136.421 19.7C136.368 19.9133 136.215 20.1 135.961 20.26C135.508 20.5667 134.975 20.8 134.361 20.96C133.761 21.1067 133.188 21.18 132.641 21.18ZM132.341 12.48C131.501 12.48 130.835 12.74 130.341 13.26C129.848 13.78 129.548 14.4733 129.441 15.34H134.901C134.861 14.4333 134.621 13.7333 134.181 13.24C133.741 12.7333 133.128 12.48 132.341 12.48ZM140.044 21.14C139.377 21.14 139.044 20.8 139.044 20.12V12.12C139.044 11.44 139.37 11.1 140.024 11.1C140.677 11.1 141.004 11.44 141.004 12.12V12.82C141.297 12.26 141.704 11.8267 142.224 11.52C142.744 11.2133 143.35 11.06 144.044 11.06C145.537 11.06 146.504 11.7133 146.944 13.02C147.25 12.4067 147.69 11.9267 148.264 11.58C148.837 11.2333 149.49 11.06 150.224 11.06C152.41 11.06 153.504 12.3667 153.504 14.98V20.12C153.504 20.8 153.164 21.14 152.484 21.14C151.817 21.14 151.484 20.8 151.484 20.12V15.08C151.484 14.2533 151.337 13.6467 151.044 13.26C150.764 12.8733 150.297 12.68 149.644 12.68C148.91 12.68 148.33 12.94 147.904 13.46C147.477 13.9667 147.264 14.66 147.264 15.54V20.12C147.264 20.8 146.93 21.14 146.264 21.14C145.584 21.14 145.244 20.8 145.244 20.12V15.08C145.244 14.2533 145.104 13.6467 144.824 13.26C144.544 12.8733 144.077 12.68 143.424 12.68C142.69 12.68 142.11 12.94 141.684 13.46C141.27 13.9667 141.064 14.66 141.064 15.54V20.12C141.064 20.8 140.724 21.14 140.044 21.14ZM159.648 21.18C158.968 21.18 158.361 21.0467 157.828 20.78C157.294 20.5133 156.868 20.1533 156.548 19.7C156.241 19.2467 156.088 18.7333 156.088 18.16C156.088 17.44 156.268 16.8733 156.628 16.46C157.001 16.0467 157.608 15.7467 158.448 15.56C159.301 15.3733 160.448 15.28 161.888 15.28H162.568V14.76C162.568 14 162.408 13.4533 162.088 13.12C161.768 12.7867 161.241 12.62 160.508 12.62C160.081 12.62 159.634 12.6733 159.168 12.78C158.714 12.8867 158.241 13.0667 157.748 13.32C157.468 13.4533 157.234 13.4733 157.048 13.38C156.874 13.2867 156.754 13.14 156.688 12.94C156.621 12.74 156.628 12.5333 156.708 12.32C156.788 12.1067 156.954 11.9467 157.208 11.84C157.794 11.5733 158.374 11.38 158.948 11.26C159.521 11.1267 160.061 11.06 160.568 11.06C161.901 11.06 162.888 11.38 163.528 12.02C164.168 12.6467 164.488 13.6333 164.488 14.98V20.12C164.488 20.8 164.174 21.14 163.548 21.14C162.908 21.14 162.588 20.8 162.588 20.12V19.38C162.348 19.94 161.974 20.38 161.468 20.7C160.961 21.02 160.354 21.18 159.648 21.18ZM160.048 19.74C160.768 19.74 161.368 19.4867 161.848 18.98C162.328 18.4733 162.568 17.8333 162.568 17.06V16.52H161.908C160.934 16.52 160.168 16.5667 159.608 16.66C159.061 16.7533 158.668 16.9133 158.428 17.14C158.201 17.3533 158.088 17.6533 158.088 18.04C158.088 18.5467 158.261 18.96 158.608 19.28C158.954 19.5867 159.434 19.74 160.048 19.74ZM168.47 21.14C167.803 21.14 167.47 20.8 167.47 20.12V12.12C167.47 11.44 167.797 11.1 168.45 11.1C169.103 11.1 169.43 11.44 169.43 12.12V12.86C169.763 12.2733 170.217 11.8267 170.79 11.52C171.377 11.2133 172.03 11.06 172.75 11.06C175.057 11.06 176.21 12.3667 176.21 14.98V20.12C176.21 20.8 175.877 21.14 175.21 21.14C174.53 21.14 174.19 20.8 174.19 20.12V15.1C174.19 14.26 174.023 13.6467 173.69 13.26C173.37 12.8733 172.863 12.68 172.17 12.68C171.357 12.68 170.703 12.94 170.21 13.46C169.73 13.9667 169.49 14.64 169.49 15.48V20.12C169.49 20.8 169.15 21.14 168.47 21.14ZM182.313 21.18C181.633 21.18 181.027 21.0467 180.493 20.78C179.96 20.5133 179.533 20.1533 179.213 19.7C178.907 19.2467 178.753 18.7333 178.753 18.16C178.753 17.44 178.933 16.8733 179.293 16.46C179.667 16.0467 180.273 15.7467 181.113 15.56C181.967 15.3733 183.113 15.28 184.553 15.28H185.233V14.76C185.233 14 185.073 13.4533 184.753 13.12C184.433 12.7867 183.907 12.62 183.173 12.62C182.747 12.62 182.3 12.6733 181.833 12.78C181.38 12.8867 180.907 13.0667 180.413 13.32C180.133 13.4533 179.9 13.4733 179.713 13.38C179.54 13.2867 179.42 13.14 179.353 12.94C179.287 12.74 179.293 12.5333 179.373 12.32C179.453 12.1067 179.62 11.9467 179.873 11.84C180.46 11.5733 181.04 11.38 181.613 11.26C182.187 11.1267 182.727 11.06 183.233 11.06C184.567 11.06 185.553 11.38 186.193 12.02C186.833 12.6467 187.153 13.6333 187.153 14.98V20.12C187.153 20.8 186.84 21.14 186.213 21.14C185.573 21.14 185.253 20.8 185.253 20.12V19.38C185.013 19.94 184.64 20.38 184.133 20.7C183.627 21.02 183.02 21.18 182.313 21.18ZM182.713 19.74C183.433 19.74 184.033 19.4867 184.513 18.98C184.993 18.4733 185.233 17.8333 185.233 17.06V16.52H184.573C183.6 16.52 182.833 16.5667 182.273 16.66C181.727 16.7533 181.333 16.9133 181.093 17.14C180.867 17.3533 180.753 17.6533 180.753 18.04C180.753 18.5467 180.927 18.96 181.273 19.28C181.62 19.5867 182.1 19.74 182.713 19.74Z" fill="#212121"/>
<path d="M247.54 21.14C247.033 21.14 246.78 20.8733 246.78 20.34V7.56C246.78 7.02667 247.033 6.76 247.54 6.76C247.753 6.76 247.92 6.80667 248.04 6.9C248.173 6.98 248.293 7.12 248.4 7.32L253.58 17.08L258.74 7.32C258.847 7.12 258.96 6.98 259.08 6.9C259.2 6.80667 259.373 6.76 259.6 6.76C260.093 6.76 260.34 7.02667 260.34 7.56V20.34C260.34 20.8733 260.087 21.14 259.58 21.14C259.073 21.14 258.82 20.8733 258.82 20.34V9.98L254.3 18.48C254.207 18.6533 254.107 18.78 254 18.86C253.907 18.9267 253.767 18.96 253.58 18.96C253.393 18.96 253.247 18.92 253.14 18.84C253.033 18.76 252.94 18.64 252.86 18.48L248.28 10V20.34C248.28 20.8733 248.033 21.14 247.54 21.14ZM268.209 21.18C266.676 21.18 265.463 20.7333 264.569 19.84C263.676 18.9333 263.229 17.7067 263.229 16.16C263.229 15.16 263.429 14.28 263.829 13.52C264.229 12.7467 264.776 12.1533 265.469 11.74C266.176 11.3133 266.989 11.1 267.909 11.1C269.229 11.1 270.263 11.5267 271.009 12.38C271.756 13.22 272.129 14.38 272.129 15.86C272.129 16.2733 271.896 16.48 271.429 16.48H264.809C264.863 17.5867 265.183 18.4333 265.769 19.02C266.356 19.5933 267.169 19.88 268.209 19.88C268.649 19.88 269.096 19.8267 269.549 19.72C270.003 19.6 270.443 19.3933 270.869 19.1C271.176 18.9 271.429 18.86 271.629 18.98C271.843 19.1 271.949 19.2867 271.949 19.54C271.963 19.78 271.829 19.9933 271.549 20.18C271.109 20.5 270.583 20.7467 269.969 20.92C269.369 21.0933 268.783 21.18 268.209 21.18ZM267.949 12.3C267.029 12.3 266.303 12.5867 265.769 13.16C265.236 13.7333 264.923 14.4867 264.829 15.42H270.729C270.689 14.4333 270.429 13.6667 269.949 13.12C269.483 12.5733 268.816 12.3 267.949 12.3ZM270.549 9.36C270.656 9.57333 270.656 9.75333 270.549 9.9C270.443 10.0333 270.296 10.1133 270.109 10.14C269.936 10.1533 269.796 10.0667 269.689 9.88L267.909 7.02L266.129 9.88C266.023 10.0667 265.876 10.1533 265.689 10.14C265.516 10.1133 265.376 10.0333 265.269 9.9C265.163 9.75333 265.163 9.57333 265.269 9.36L266.929 6.32C267.156 5.89333 267.483 5.68 267.909 5.68C268.336 5.68 268.663 5.89333 268.889 6.32L270.549 9.36ZM277.954 21.18C277.354 21.18 276.747 21.1067 276.134 20.96C275.534 20.8 274.974 20.5467 274.454 20.2C274.214 20.0533 274.094 19.8667 274.094 19.64C274.107 19.4 274.201 19.2133 274.374 19.08C274.547 18.9467 274.767 18.9467 275.034 19.08C275.554 19.4 276.054 19.6267 276.534 19.76C277.027 19.88 277.514 19.94 277.994 19.94C278.754 19.94 279.327 19.8 279.714 19.52C280.101 19.24 280.294 18.86 280.294 18.38C280.294 18.0067 280.167 17.7133 279.914 17.5C279.661 17.2733 279.261 17.1 278.714 16.98L276.894 16.58C275.241 16.22 274.414 15.3667 274.414 14.02C274.414 13.14 274.761 12.4333 275.454 11.9C276.161 11.3667 277.081 11.1 278.214 11.1C278.787 11.1 279.341 11.18 279.874 11.34C280.407 11.4867 280.887 11.7267 281.314 12.06C281.541 12.22 281.641 12.4133 281.614 12.64C281.587 12.8667 281.481 13.0467 281.294 13.18C281.121 13.3 280.907 13.28 280.654 13.12C280.254 12.8533 279.847 12.66 279.434 12.54C279.021 12.4067 278.614 12.34 278.214 12.34C277.467 12.34 276.901 12.4867 276.514 12.78C276.127 13.0733 275.934 13.46 275.934 13.94C275.934 14.6867 276.427 15.1667 277.414 15.38L279.234 15.76C280.087 15.9467 280.734 16.2467 281.174 16.66C281.614 17.06 281.834 17.6067 281.834 18.3C281.834 19.1933 281.481 19.9 280.774 20.42C280.067 20.9267 279.127 21.18 277.954 21.18Z" fill="#BDBDBD"/>
</svg>
