<svg width="550" height="550" viewBox="0 0 986 599" fill="none" xmlns="http://www.w3.org/2000/svg">
<path d="M5.21839 14.1392C4.53562 14.1392 3.9324 14.0182 3.40873 13.7763C2.88837 13.531 2.48236 13.1946 2.19069 12.767C1.89902 12.3362 1.75485 11.8456 1.75816 11.2955C1.75485 10.8646 1.83936 10.4669 2.01171 10.1023C2.18406 9.73437 2.41938 9.42779 2.71768 9.18253C3.01929 8.93395 3.3557 8.77651 3.72691 8.71023V8.65057C3.2397 8.52462 2.85191 8.25118 2.56356 7.83026C2.27521 7.40601 2.13269 6.92377 2.136 6.38352C2.13269 5.86648 2.26361 5.40412 2.52876 4.99645C2.79391 4.58878 3.15849 4.26728 3.62251 4.03196C4.08984 3.79664 4.6218 3.67898 5.21839 3.67898C5.80835 3.67898 6.33534 3.79664 6.79935 4.03196C7.26337 4.26728 7.62795 4.58878 7.8931 4.99645C8.16157 5.40412 8.29746 5.86648 8.30078 6.38352C8.29746 6.92377 8.14997 7.40601 7.8583 7.83026C7.56995 8.25118 7.18714 8.52462 6.70987 8.65057V8.71023C7.07776 8.77651 7.4092 8.93395 7.70418 9.18253C7.99916 9.42779 8.23449 9.73437 8.41015 10.1023C8.58581 10.4669 8.6753 10.8646 8.67862 11.2955C8.6753 11.8456 8.52615 12.3362 8.23117 12.767C7.93951 13.1946 7.53349 13.531 7.01313 13.7763C6.49609 14.0182 5.89784 14.1392 5.21839 14.1392ZM5.21839 13.0455C5.67909 13.0455 6.07682 12.9709 6.41157 12.8217C6.74632 12.6726 7.00485 12.4621 7.18714 12.1903C7.36943 11.9186 7.46223 11.6004 7.46555 11.2358C7.46223 10.8513 7.3628 10.5116 7.16725 10.2166C6.9717 9.92164 6.70489 9.68963 6.36683 9.5206C6.03207 9.35156 5.64926 9.26705 5.21839 9.26705C4.7842 9.26705 4.39642 9.35156 4.05504 9.5206C3.71697 9.68963 3.45016 9.92164 3.25461 10.2166C3.06238 10.5116 2.96791 10.8513 2.97123 11.2358C2.96791 11.6004 3.05575 11.9186 3.23472 12.1903C3.41702 12.4621 3.6772 12.6726 4.01526 12.8217C4.35333 12.9709 4.75437 13.0455 5.21839 13.0455ZM5.21839 8.21307C5.58297 8.21307 5.90613 8.14015 6.18785 7.99432C6.47289 7.84848 6.69661 7.64465 6.85901 7.38281C7.02142 7.12098 7.10428 6.81439 7.10759 6.46307C7.10428 6.11837 7.02308 5.81842 6.86399 5.56321C6.70489 5.30469 6.48449 5.10582 6.20276 4.96662C5.92104 4.8241 5.59292 4.75284 5.21839 4.75284C4.83723 4.75284 4.50414 4.8241 4.2191 4.96662C3.93406 5.10582 3.71365 5.30469 3.55788 5.56321C3.4021 5.81842 3.32587 6.11837 3.32918 6.46307C3.32587 6.81439 3.40376 7.12098 3.56285 7.38281C3.72525 7.64465 3.94898 7.84848 4.23401 7.99432C4.51905 8.14015 4.84718 8.21307 5.21839 8.21307ZM13.625 14.1392C12.8759 14.1392 12.2379 13.9354 11.7109 13.5277C11.1839 13.1167 10.7813 12.5218 10.5028 11.7429C10.2244 10.9607 10.0852 10.0161 10.0852 8.90909C10.0852 7.80871 10.2244 6.86908 10.5028 6.0902C10.7846 5.308 11.1889 4.71141 11.7159 4.30043C12.2462 3.88613 12.8826 3.67898 13.625 3.67898C14.3674 3.67898 15.0021 3.88613 15.5291 4.30043C16.0594 4.71141 16.4638 5.308 16.7422 6.0902C17.0239 6.86908 17.1648 7.80871 17.1648 8.90909C17.1648 10.0161 17.0256 10.9607 16.7472 11.7429C16.4688 12.5218 16.0661 13.1167 15.5391 13.5277C15.0121 13.9354 14.3741 14.1392 13.625 14.1392ZM13.625 13.0455C14.3674 13.0455 14.9441 12.6875 15.3551 11.9716C15.7661 11.2557 15.9716 10.2348 15.9716 8.90909C15.9716 8.02746 15.8771 7.27675 15.6882 6.65696C15.5026 6.03717 15.2341 5.56487 14.8828 5.24006C14.5348 4.91525 14.1155 4.75284 13.625 4.75284C12.8892 4.75284 12.3142 5.11577 11.8999 5.84162C11.4856 6.56416 11.2784 7.58665 11.2784 8.90909C11.2784 9.79072 11.3712 10.5398 11.5568 11.1562C11.7424 11.7727 12.0092 12.2417 12.3572 12.5632C12.7086 12.8847 13.1312 13.0455 13.625 13.0455Z" fill="#212121"/>
<path d="M3.12286 75.1113L7.67684 66.1028V66.0233H2.42684V64.9295H8.94957V66.0829L4.41548 75.1113H3.12286ZM13.625 75.2505C12.8759 75.2505 12.2379 75.0467 11.7109 74.639C11.1839 74.228 10.7813 73.6331 10.5028 72.8542C10.2244 72.072 10.0852 71.1274 10.0852 70.0204C10.0852 68.92 10.2244 67.9804 10.5028 67.2015C10.7846 66.4193 11.1889 65.8227 11.7159 65.4118C12.2462 64.9975 12.8826 64.7903 13.625 64.7903C14.3674 64.7903 15.0021 64.9975 15.5291 65.4118C16.0594 65.8227 16.4638 66.4193 16.7422 67.2015C17.0239 67.9804 17.1648 68.92 17.1648 70.0204C17.1648 71.1274 17.0256 72.072 16.7472 72.8542C16.4688 73.6331 16.0661 74.228 15.5391 74.639C15.0121 75.0467 14.3741 75.2505 13.625 75.2505ZM13.625 74.1568C14.3674 74.1568 14.9441 73.7988 15.3551 73.0829C15.7661 72.367 15.9716 71.3462 15.9716 70.0204C15.9716 69.1388 15.8771 68.3881 15.6882 67.7683C15.5026 67.1485 15.2341 66.6762 14.8828 66.3514C14.5348 66.0266 14.1155 65.8642 13.625 65.8642C12.8892 65.8642 12.3142 66.2271 11.8999 66.9529C11.4856 67.6755 11.2784 68.698 11.2784 70.0204C11.2784 70.902 11.3712 71.6511 11.5568 72.2676C11.7424 72.8841 12.0092 73.353 12.3572 73.6745C12.7086 73.996 13.1312 74.1568 13.625 74.1568Z" fill="#212121"/>
<path d="M5.22833 136.362C4.81072 136.355 4.3931 136.276 3.97549 136.123C3.55788 135.971 3.17672 135.714 2.83202 135.353C2.48733 134.988 2.21058 134.496 2.00177 133.876C1.79296 133.253 1.68856 132.471 1.68856 131.529C1.68856 130.628 1.77308 129.829 1.94211 129.133C2.11114 128.434 2.35641 127.846 2.67791 127.368C2.9994 126.888 3.38719 126.523 3.84126 126.275C4.29864 126.026 4.81403 125.902 5.38742 125.902C5.9575 125.902 6.4646 126.016 6.90873 126.245C7.35617 126.47 7.72076 126.785 8.00248 127.189C8.2842 127.594 8.46649 128.059 8.54935 128.586H7.33629C7.2236 128.129 7.00485 127.749 6.68004 127.448C6.35523 127.146 5.92435 126.995 5.38742 126.995C4.5986 126.995 3.97715 127.338 3.52308 128.025C3.07232 128.711 2.84528 129.673 2.84197 130.913H2.92151C3.10712 130.631 3.32753 130.391 3.58274 130.192C3.84126 129.99 4.1263 129.834 4.43785 129.725C4.7494 129.615 5.07918 129.561 5.4272 129.561C6.01053 129.561 6.54415 129.707 7.02805 129.998C7.51195 130.287 7.89973 130.686 8.1914 131.196C8.48307 131.703 8.6289 132.285 8.6289 132.941C8.6289 133.571 8.48804 134.148 8.20631 134.672C7.92459 135.192 7.52852 135.606 7.0181 135.914C6.511 136.219 5.91441 136.368 5.22833 136.362ZM5.22833 135.268C5.64595 135.268 6.02047 135.164 6.35191 134.955C6.68667 134.746 6.95016 134.466 7.14239 134.115C7.33794 133.763 7.43572 133.372 7.43572 132.941C7.43572 132.52 7.34126 132.138 7.15234 131.793C6.96673 131.445 6.70987 131.168 6.38174 130.963C6.05693 130.757 5.68572 130.654 5.2681 130.654C4.95324 130.654 4.65991 130.717 4.38813 130.843C4.11635 130.966 3.87772 131.135 3.67222 131.35C3.47005 131.566 3.31095 131.813 3.19495 132.091C3.07895 132.366 3.02095 132.656 3.02095 132.961C3.02095 133.366 3.11541 133.743 3.30433 134.095C3.49656 134.446 3.7584 134.73 4.08984 134.945C4.42459 135.16 4.80409 135.268 5.22833 135.268ZM13.625 136.362C12.8759 136.362 12.2379 136.158 11.7109 135.75C11.1839 135.339 10.7813 134.744 10.5028 133.966C10.2244 133.183 10.0852 132.239 10.0852 131.132C10.0852 130.031 10.2244 129.092 10.5028 128.313C10.7846 127.531 11.1889 126.934 11.7159 126.523C12.2462 126.109 12.8826 125.902 13.625 125.902C14.3674 125.902 15.0021 126.109 15.5291 126.523C16.0594 126.934 16.4638 127.531 16.7422 128.313C17.0239 129.092 17.1648 130.031 17.1648 131.132C17.1648 132.239 17.0256 133.183 16.7472 133.966C16.4688 134.744 16.0661 135.339 15.5391 135.75C15.0121 136.158 14.3741 136.362 13.625 136.362ZM13.625 135.268C14.3674 135.268 14.9441 134.91 15.3551 134.194C15.7661 133.478 15.9716 132.458 15.9716 131.132C15.9716 130.25 15.8771 129.499 15.6882 128.88C15.5026 128.26 15.2341 127.788 14.8828 127.463C14.5348 127.138 14.1155 126.975 13.625 126.975C12.8892 126.975 12.3142 127.338 11.8999 128.064C11.4856 128.787 11.2784 129.809 11.2784 131.132C11.2784 132.013 11.3712 132.762 11.5568 133.379C11.7424 133.995 12.0092 134.464 12.3572 134.786C12.7086 135.107 13.1312 135.268 13.625 135.268Z" fill="#212121"/>
<path d="M5.24822 197.472C4.66488 197.472 4.13955 197.356 3.67222 197.124C3.20489 196.892 2.83037 196.574 2.54864 196.17C2.26692 195.765 2.1128 195.305 2.08629 194.788H3.27947C3.32587 195.248 3.53468 195.629 3.90589 195.931C4.28042 196.229 4.72786 196.378 5.24822 196.378C5.66583 196.378 6.03704 196.281 6.36185 196.085C6.68998 195.89 6.94685 195.621 7.13245 195.28C7.32137 194.935 7.41583 194.546 7.41583 194.111C7.41583 193.667 7.31806 193.271 7.12251 192.923C6.93027 192.572 6.66512 192.295 6.32705 192.093C5.98899 191.891 5.60286 191.788 5.16867 191.785C4.85712 191.781 4.53728 191.829 4.20916 191.929C3.88103 192.025 3.61091 192.149 3.39879 192.302L2.24538 192.163L2.86185 187.151H8.15163V188.245H3.89595L3.53799 191.248H3.59765C3.80646 191.082 4.06829 190.945 4.38316 190.835C4.69803 190.726 5.02615 190.671 5.36754 190.671C5.99064 190.671 6.5458 190.82 7.03302 191.119C7.52355 191.414 7.90802 191.818 8.18643 192.332C8.46815 192.845 8.60901 193.432 8.60901 194.092C8.60901 194.741 8.46318 195.321 8.17151 195.832C7.88316 196.339 7.48543 196.74 6.97833 197.035C6.47123 197.326 5.89453 197.472 5.24822 197.472ZM13.625 197.472C12.8759 197.472 12.2379 197.268 11.7109 196.861C11.1839 196.45 10.7813 195.855 10.5028 195.076C10.2244 194.294 10.0852 193.349 10.0852 192.242C10.0852 191.142 10.2244 190.202 10.5028 189.423C10.7846 188.641 11.1889 188.044 11.7159 187.633C12.2462 187.219 12.8826 187.012 13.625 187.012C14.3674 187.012 15.0021 187.219 15.5291 187.633C16.0594 188.044 16.4638 188.641 16.7422 189.423C17.0239 190.202 17.1648 191.142 17.1648 192.242C17.1648 193.349 17.0256 194.294 16.7472 195.076C16.4688 195.855 16.0661 196.45 15.5391 196.861C15.0121 197.268 14.3741 197.472 13.625 197.472ZM13.625 196.378C14.3674 196.378 14.9441 196.021 15.3551 195.305C15.7661 194.589 15.9716 193.568 15.9716 192.242C15.9716 191.36 15.8771 190.61 15.6882 189.99C15.5026 189.37 15.2341 188.898 14.8828 188.573C14.5348 188.248 14.1155 188.086 13.625 188.086C12.8892 188.086 12.3142 188.449 11.8999 189.175C11.4856 189.897 11.2784 190.92 11.2784 192.242C11.2784 193.124 11.3712 193.873 11.5568 194.489C11.7424 195.106 12.0092 195.575 12.3572 195.896C12.7086 196.218 13.1312 196.378 13.625 196.378Z" fill="#212121"/>
<path d="M1.36292 256.356V255.342L5.83735 248.263H6.57315V249.834H6.07599L2.69531 255.183V255.263H8.72087V256.356H1.36292ZM6.15553 258.444V256.048V255.576V248.263H7.32883V258.444H6.15553ZM13.625 258.584C12.8759 258.584 12.2379 258.38 11.7109 257.972C11.1839 257.561 10.7813 256.966 10.5028 256.187C10.2244 255.405 10.0852 254.46 10.0852 253.353C10.0852 252.253 10.2244 251.313 10.5028 250.535C10.7846 249.752 11.1889 249.156 11.7159 248.745C12.2462 248.33 12.8826 248.123 13.625 248.123C14.3674 248.123 15.0021 248.33 15.5291 248.745C16.0594 249.156 16.4638 249.752 16.7422 250.535C17.0239 251.313 17.1648 252.253 17.1648 253.353C17.1648 254.46 17.0256 255.405 16.7472 256.187C16.4688 256.966 16.0661 257.561 15.5391 257.972C15.0121 258.38 14.3741 258.584 13.625 258.584ZM13.625 257.49C14.3674 257.49 14.9441 257.132 15.3551 256.416C15.7661 255.7 15.9716 254.679 15.9716 253.353C15.9716 252.472 15.8771 251.721 15.6882 251.101C15.5026 250.482 15.2341 250.009 14.8828 249.684C14.5348 249.36 14.1155 249.197 13.625 249.197C12.8892 249.197 12.3142 249.56 11.8999 250.286C11.4856 251.008 11.2784 252.031 11.2784 253.353C11.2784 254.235 11.3712 254.984 11.5568 255.601C11.7424 256.217 12.0092 256.686 12.3572 257.008C12.7086 257.329 13.1312 257.49 13.625 257.49Z" fill="#212121"/>
<path d="M5.11026 319.695C4.45401 319.695 3.86902 319.582 3.35528 319.357C2.84487 319.131 2.43885 318.818 2.13725 318.417C1.83895 318.013 1.67654 317.544 1.65003 317.01H2.90287C2.92939 317.338 3.04207 317.622 3.24094 317.86C3.4398 318.096 3.69998 318.278 4.02148 318.407C4.34297 318.536 4.69927 318.601 5.09037 318.601C5.52787 318.601 5.91565 318.525 6.25372 318.372C6.59179 318.22 6.85694 318.008 7.04918 317.736C7.24141 317.464 7.33753 317.149 7.33753 316.791C7.33753 316.417 7.24473 316.087 7.05912 315.802C6.87351 315.514 6.60173 315.288 6.24378 315.126C5.88582 314.964 5.44832 314.882 4.93128 314.882H4.11594V313.789H4.93128C5.33564 313.789 5.69028 313.716 5.9952 313.57C6.30344 313.424 6.54373 313.219 6.71608 312.953C6.89174 312.688 6.97957 312.377 6.97957 312.019C6.97957 311.674 6.90334 311.374 6.75088 311.119C6.59842 310.864 6.38298 310.665 6.10457 310.522C5.82948 310.38 5.50467 310.309 5.13014 310.309C4.77882 310.309 4.44738 310.373 4.13582 310.502C3.82759 310.628 3.57569 310.812 3.38014 311.054C3.18459 311.293 3.07853 311.581 3.06196 311.919H1.86878C1.88867 311.386 2.04941 310.918 2.35102 310.517C2.65263 310.113 3.04705 309.798 3.53426 309.573C4.02479 309.347 4.56338 309.235 5.15003 309.235C5.77976 309.235 6.32001 309.362 6.77077 309.617C7.22153 309.869 7.56788 310.202 7.80983 310.617C8.05178 311.031 8.17276 311.478 8.17276 311.959C8.17276 312.532 8.02195 313.021 7.72034 313.426C7.42205 313.83 7.01603 314.11 6.5023 314.266V314.345C7.14529 314.451 7.64743 314.725 8.00869 315.166C8.36996 315.603 8.5506 316.145 8.5506 316.791C8.5506 317.345 8.39979 317.842 8.09818 318.283C7.79989 318.72 7.39222 319.065 6.87517 319.317C6.35813 319.569 5.76982 319.695 5.11026 319.695ZM13.625 319.695C12.8759 319.695 12.2379 319.491 11.7109 319.083C11.1839 318.672 10.7813 318.077 10.5028 317.299C10.2244 316.516 10.0852 315.572 10.0852 314.465C10.0852 313.364 10.2244 312.425 10.5028 311.646C10.7846 310.864 11.1889 310.267 11.7159 309.856C12.2462 309.442 12.8826 309.235 13.625 309.235C14.3674 309.235 15.0021 309.442 15.5291 309.856C16.0594 310.267 16.4638 310.864 16.7422 311.646C17.0239 312.425 17.1648 313.364 17.1648 314.465C17.1648 315.572 17.0256 316.516 16.7472 317.299C16.4688 318.077 16.0661 318.672 15.5391 319.083C15.0121 319.491 14.3741 319.695 13.625 319.695ZM13.625 318.601C14.3674 318.601 14.9441 318.243 15.3551 317.527C15.7661 316.811 15.9716 315.791 15.9716 314.465C15.9716 313.583 15.8771 312.832 15.6882 312.213C15.5026 311.593 15.2341 311.121 14.8828 310.796C14.5348 310.471 14.1155 310.309 13.625 310.309C12.8892 310.309 12.3142 310.671 11.8999 311.397C11.4856 312.12 11.2784 313.142 11.2784 314.465C11.2784 315.346 11.3712 316.095 11.5568 316.712C11.7424 317.328 12.0092 317.797 12.3572 318.119C12.7086 318.44 13.1312 318.601 13.625 318.601Z" fill="#212121"/>
<path d="M2.10742 380.667V379.772L5.46821 376.093C5.86262 375.662 6.18743 375.288 6.44264 374.97C6.69785 374.648 6.88677 374.346 7.0094 374.065C7.13535 373.78 7.19832 373.481 7.19832 373.17C7.19832 372.812 7.11215 372.502 6.9398 372.24C6.77077 371.978 6.53876 371.776 6.24378 371.634C5.9488 371.491 5.61736 371.42 5.24946 371.42C4.85836 371.42 4.51698 371.501 4.22531 371.663C3.93696 371.823 3.71324 372.046 3.55415 372.335C3.39837 372.623 3.32048 372.961 3.32048 373.349H2.14719C2.14719 372.752 2.28474 372.229 2.55983 371.778C2.83493 371.327 3.20945 370.976 3.68341 370.724C4.16068 370.472 4.69596 370.346 5.28923 370.346C5.88582 370.346 6.41447 370.472 6.87517 370.724C7.33587 370.976 7.69714 371.315 7.95898 371.743C8.22082 372.171 8.35173 372.646 8.35173 373.17C8.35173 373.544 8.28379 373.911 8.1479 374.269C8.01532 374.623 7.78332 375.019 7.45188 375.457C7.12375 375.891 6.66802 376.421 6.08469 377.048L3.79776 379.494V379.573H8.53071V380.667H2.10742ZM13.625 380.806C12.8759 380.806 12.2379 380.602 11.7109 380.195C11.1839 379.784 10.7813 379.189 10.5028 378.41C10.2244 377.628 10.0852 376.683 10.0852 375.576C10.0852 374.476 10.2244 373.536 10.5028 372.757C10.7846 371.975 11.1889 371.378 11.7159 370.967C12.2462 370.553 12.8826 370.346 13.625 370.346C14.3674 370.346 15.0021 370.553 15.5291 370.967C16.0594 371.378 16.4638 371.975 16.7422 372.757C17.0239 373.536 17.1648 374.476 17.1648 375.576C17.1648 376.683 17.0256 377.628 16.7472 378.41C16.4688 379.189 16.0661 379.784 15.5391 380.195C15.0121 380.602 14.3741 380.806 13.625 380.806ZM13.625 379.712C14.3674 379.712 14.9441 379.354 15.3551 378.639C15.7661 377.923 15.9716 376.902 15.9716 375.576C15.9716 374.694 15.8771 373.944 15.6882 373.324C15.5026 372.704 15.2341 372.232 14.8828 371.907C14.5348 371.582 14.1155 371.42 13.625 371.42C12.8892 371.42 12.3142 371.783 11.8999 372.509C11.4856 373.231 11.2784 374.254 11.2784 375.576C11.2784 376.458 11.3712 377.207 11.5568 377.823C11.7424 378.44 12.0092 378.909 12.3572 379.23C12.7086 379.552 13.1312 379.712 13.625 379.712Z" fill="#212121"/>
<path d="M7.65571 431.596V441.777H6.42276V432.888H6.3631L3.8773 434.539V433.286L6.42276 431.596H7.65571ZM13.625 441.917C12.8759 441.917 12.2379 441.713 11.7109 441.305C11.1839 440.894 10.7812 440.299 10.5028 439.52C10.2244 438.738 10.0852 437.793 10.0852 436.686C10.0852 435.586 10.2244 434.646 10.5028 433.868C10.7846 433.085 11.1889 432.489 11.7159 432.078C12.2462 431.663 12.8826 431.456 13.625 431.456C14.3674 431.456 15.0021 431.663 15.5291 432.078C16.0594 432.489 16.4638 433.085 16.7422 433.868C17.0239 434.646 17.1648 435.586 17.1648 436.686C17.1648 437.793 17.0256 438.738 16.7472 439.52C16.4687 440.299 16.0661 440.894 15.5391 441.305C15.0121 441.713 14.3741 441.917 13.625 441.917ZM13.625 440.823C14.3674 440.823 14.9441 440.465 15.3551 439.749C15.7661 439.033 15.9716 438.012 15.9716 436.686C15.9716 435.805 15.8771 435.054 15.6882 434.434C15.5026 433.815 15.2341 433.342 14.8828 433.017C14.5348 432.693 14.1155 432.53 13.625 432.53C12.8892 432.53 12.3142 432.893 11.8999 433.619C11.4856 434.342 11.2784 435.364 11.2784 436.686C11.2784 437.568 11.3712 438.317 11.5568 438.934C11.7424 439.55 12.0092 440.019 12.3572 440.341C12.7086 440.662 13.1312 440.823 13.625 440.823Z" fill="#212121"/>
<path d="M13.7182 503.028C13.1349 503.028 12.6096 502.912 12.1422 502.68C11.6749 502.448 11.3004 502.13 11.0186 501.725C10.7369 501.321 10.5828 500.86 10.5563 500.343H11.7495C11.7959 500.804 12.0047 501.185 12.3759 501.487C12.7504 501.785 13.1979 501.934 13.7182 501.934C14.1358 501.934 14.507 501.836 14.8319 501.641C15.16 501.445 15.4168 501.177 15.6025 500.835C15.7914 500.491 15.8858 500.101 15.8858 499.667C15.8858 499.223 15.7881 498.827 15.5925 498.479C15.4003 498.128 15.1351 497.851 14.7971 497.649C14.459 497.446 14.0729 497.344 13.6387 497.34C13.3271 497.337 13.0073 497.385 12.6792 497.485C12.351 497.581 12.0809 497.705 11.8688 497.857L10.7154 497.718L11.3319 492.707H16.6216V493.801H12.3659L12.008 496.803H12.0676C12.2765 496.638 12.5383 496.5 12.8532 496.391C13.168 496.281 13.4962 496.227 13.8375 496.227C14.4606 496.227 15.0158 496.376 15.503 496.674C15.9935 496.969 16.378 497.374 16.6564 497.887C16.9382 498.401 17.079 498.988 17.079 499.647C17.079 500.297 16.9332 500.877 16.6415 501.387C16.3532 501.894 15.9554 502.295 15.4483 502.59C14.9412 502.882 14.3645 503.028 13.7182 503.028Z" fill="#212121"/>
<path d="M13.625 564.139C12.8759 564.139 12.2379 563.935 11.7109 563.528C11.1839 563.117 10.7813 562.522 10.5028 561.743C10.2244 560.961 10.0852 560.016 10.0852 558.909C10.0852 557.809 10.2244 556.869 10.5028 556.09C10.7846 555.308 11.1889 554.711 11.7159 554.3C12.2462 553.886 12.8826 553.679 13.625 553.679C14.3674 553.679 15.0021 553.886 15.5291 554.3C16.0594 554.711 16.4638 555.308 16.7422 556.09C17.0239 556.869 17.1648 557.809 17.1648 558.909C17.1648 560.016 17.0256 560.961 16.7472 561.743C16.4688 562.522 16.0661 563.117 15.5391 563.528C15.0121 563.935 14.3741 564.139 13.625 564.139ZM13.625 563.045C14.3674 563.045 14.9441 562.687 15.3551 561.972C15.7661 561.256 15.9716 560.235 15.9716 558.909C15.9716 558.027 15.8771 557.277 15.6882 556.657C15.5026 556.037 15.2341 555.565 14.8828 555.24C14.5348 554.915 14.1155 554.753 13.625 554.753C12.8892 554.753 12.3142 555.116 11.8999 555.842C11.4856 556.564 11.2784 557.587 11.2784 558.909C11.2784 559.791 11.3712 560.54 11.5568 561.156C11.7424 561.773 12.0092 562.242 12.3572 562.563C12.7086 562.885 13.1312 563.045 13.625 563.045Z" fill="#212121"/>
<line x1="34.5" y1="17.5" x2="979.5" y2="17.5" stroke="#EEEEEE" stroke-linecap="round"/>
<line x1="34.5" y1="78.5" x2="979.5" y2="78.5" stroke="#EEEEEE" stroke-linecap="round"/>
<line x1="34.5" y1="139.5" x2="979.5" y2="139.5" stroke="#EEEEEE" stroke-linecap="round"/>
<line x1="34.5" y1="200.5" x2="979.5" y2="200.5" stroke="#EEEEEE" stroke-linecap="round"/>
<line x1="34.5" y1="261.5" x2="979.5" y2="261.5" stroke="#EEEEEE" stroke-linecap="round"/>
<line x1="34.5" y1="322.5" x2="979.5" y2="322.5" stroke="#EEEEEE" stroke-linecap="round"/>
<line x1="34.5" y1="383.5" x2="979.5" y2="383.5" stroke="#EEEEEE" stroke-linecap="round"/>
<line x1="34.5" y1="444.5" x2="979.5" y2="444.5" stroke="#EEEEEE" stroke-linecap="round"/>
<line x1="34.5" y1="505.5" x2="979.5" y2="505.5" stroke="#EEEEEE" stroke-linecap="round"/>
<line x1="34.5" y1="566.5" x2="979.5" y2="566.5" stroke="#EEEEEE" stroke-linecap="round"/>
<path d="M107.816 598.144C107.048 598.144 106.664 597.748 106.664 596.956V586.48C106.664 585.7 107.054 585.31 107.834 585.31H112.172C113.564 585.31 114.638 585.646 115.394 586.318C116.15 586.978 116.528 587.908 116.528 589.108C116.528 590.056 116.282 590.842 115.79 591.466C115.298 592.078 114.59 592.492 113.666 592.708C114.278 592.9 114.782 593.362 115.178 594.094L116.528 596.596C116.732 596.98 116.768 597.334 116.636 597.658C116.516 597.982 116.21 598.144 115.718 598.144C115.394 598.144 115.13 598.078 114.926 597.946C114.722 597.802 114.542 597.586 114.386 597.298L112.568 593.95C112.352 593.542 112.094 593.272 111.794 593.14C111.506 592.996 111.134 592.924 110.678 592.924H108.968V596.956C108.968 597.748 108.584 598.144 107.816 598.144ZM108.968 591.214H111.776C113.456 591.214 114.296 590.53 114.296 589.162C114.296 587.806 113.456 587.128 111.776 587.128H108.968V591.214ZM121.798 598.18C121.162 598.18 120.592 598.06 120.088 597.82C119.596 597.568 119.206 597.232 118.918 596.812C118.642 596.392 118.504 595.918 118.504 595.39C118.504 594.742 118.672 594.232 119.008 593.86C119.344 593.476 119.89 593.2 120.646 593.032C121.402 592.864 122.416 592.78 123.688 592.78H124.318V592.402C124.318 591.802 124.186 591.37 123.922 591.106C123.658 590.842 123.214 590.71 122.59 590.71C122.242 590.71 121.864 590.752 121.456 590.836C121.06 590.92 120.64 591.064 120.196 591.268C119.908 591.4 119.668 591.418 119.476 591.322C119.284 591.214 119.152 591.052 119.08 590.836C119.02 590.608 119.032 590.38 119.116 590.152C119.212 589.924 119.398 589.756 119.674 589.648C120.226 589.42 120.754 589.258 121.258 589.162C121.774 589.066 122.242 589.018 122.662 589.018C123.946 589.018 124.9 589.318 125.524 589.918C126.148 590.506 126.46 591.424 126.46 592.672V596.992C126.46 597.76 126.112 598.144 125.416 598.144C124.708 598.144 124.354 597.76 124.354 596.992V596.596C124.15 597.088 123.826 597.478 123.382 597.766C122.938 598.042 122.41 598.18 121.798 598.18ZM122.266 596.632C122.854 596.632 123.34 596.428 123.724 596.02C124.12 595.612 124.318 595.096 124.318 594.472V594.076H123.706C122.578 594.076 121.792 594.166 121.348 594.346C120.916 594.514 120.7 594.826 120.7 595.282C120.7 595.678 120.838 596.002 121.114 596.254C121.39 596.506 121.774 596.632 122.266 596.632ZM130.06 587.398C129.64 587.398 129.31 587.296 129.07 587.092C128.842 586.876 128.728 586.582 128.728 586.21C128.728 585.826 128.842 585.532 129.07 585.328C129.31 585.124 129.64 585.022 130.06 585.022C130.948 585.022 131.392 585.418 131.392 586.21C131.392 587.002 130.948 587.398 130.06 587.398ZM130.06 598.126C129.7 598.126 129.424 598.018 129.232 597.802C129.04 597.586 128.944 597.286 128.944 596.902V590.296C128.944 589.48 129.316 589.072 130.06 589.072C130.816 589.072 131.194 589.48 131.194 590.296V596.902C131.194 597.286 131.098 597.586 130.906 597.802C130.714 598.018 130.432 598.126 130.06 598.126ZM137.296 598.144C136.696 598.144 136.252 597.826 135.964 597.19L133.102 590.548C132.934 590.152 132.928 589.804 133.084 589.504C133.252 589.204 133.582 589.054 134.074 589.054C134.35 589.054 134.572 589.12 134.74 589.252C134.908 589.372 135.058 589.606 135.19 589.954L137.35 595.354L139.582 589.936C139.714 589.6 139.864 589.372 140.032 589.252C140.212 589.12 140.452 589.054 140.752 589.054C141.136 589.054 141.406 589.204 141.562 589.504C141.718 589.804 141.712 590.146 141.544 590.53L138.628 597.19C138.364 597.826 137.92 598.144 137.296 598.144ZM146.146 598.18C145.51 598.18 144.94 598.06 144.436 597.82C143.944 597.568 143.554 597.232 143.266 596.812C142.99 596.392 142.852 595.918 142.852 595.39C142.852 594.742 143.02 594.232 143.356 593.86C143.692 593.476 144.238 593.2 144.994 593.032C145.75 592.864 146.764 592.78 148.036 592.78H148.666V592.402C148.666 591.802 148.534 591.37 148.27 591.106C148.006 590.842 147.562 590.71 146.938 590.71C146.59 590.71 146.212 590.752 145.804 590.836C145.408 590.92 144.988 591.064 144.544 591.268C144.256 591.4 144.016 591.418 143.824 591.322C143.632 591.214 143.5 591.052 143.428 590.836C143.368 590.608 143.38 590.38 143.464 590.152C143.56 589.924 143.746 589.756 144.022 589.648C144.574 589.42 145.102 589.258 145.606 589.162C146.122 589.066 146.59 589.018 147.01 589.018C148.294 589.018 149.248 589.318 149.872 589.918C150.496 590.506 150.808 591.424 150.808 592.672V596.992C150.808 597.76 150.46 598.144 149.764 598.144C149.056 598.144 148.702 597.76 148.702 596.992V596.596C148.498 597.088 148.174 597.478 147.73 597.766C147.286 598.042 146.758 598.18 146.146 598.18ZM146.614 596.632C147.202 596.632 147.688 596.428 148.072 596.02C148.468 595.612 148.666 595.096 148.666 594.472V594.076H148.054C146.926 594.076 146.14 594.166 145.696 594.346C145.264 594.514 145.048 594.826 145.048 595.282C145.048 595.678 145.186 596.002 145.462 596.254C145.738 596.506 146.122 596.632 146.614 596.632Z" fill="#212121"/>
<path d="M290.275 598.144C289.507 598.144 289.123 597.748 289.123 596.956V587.236H285.613C284.953 587.236 284.623 586.912 284.623 586.264C284.623 585.628 284.953 585.31 285.613 585.31H294.937C295.597 585.31 295.927 585.628 295.927 586.264C295.927 586.912 295.597 587.236 294.937 587.236H291.427V596.956C291.427 597.748 291.043 598.144 290.275 598.144ZM296.973 598.144C296.205 598.144 295.821 597.76 295.821 596.992V590.188C295.821 589.432 296.187 589.054 296.919 589.054C297.651 589.054 298.017 589.432 298.017 590.188V590.746C298.449 589.714 299.373 589.138 300.789 589.018C301.305 588.958 301.593 589.252 301.653 589.9C301.713 590.536 301.401 590.89 300.717 590.962L300.321 590.998C298.845 591.142 298.107 591.898 298.107 593.266V596.992C298.107 597.76 297.729 598.144 296.973 598.144ZM304.185 587.398C303.765 587.398 303.435 587.296 303.195 587.092C302.967 586.876 302.853 586.582 302.853 586.21C302.853 585.826 302.967 585.532 303.195 585.328C303.435 585.124 303.765 585.022 304.185 585.022C305.073 585.022 305.517 585.418 305.517 586.21C305.517 587.002 305.073 587.398 304.185 587.398ZM304.185 598.126C303.825 598.126 303.549 598.018 303.357 597.802C303.165 597.586 303.069 597.286 303.069 596.902V590.296C303.069 589.48 303.441 589.072 304.185 589.072C304.941 589.072 305.319 589.48 305.319 590.296V596.902C305.319 597.286 305.223 597.586 305.031 597.802C304.839 598.018 304.557 598.126 304.185 598.126ZM311.079 598.18C310.563 598.18 310.017 598.126 309.441 598.018C308.865 597.91 308.349 597.724 307.893 597.46C307.641 597.316 307.485 597.142 307.425 596.938C307.365 596.722 307.371 596.524 307.443 596.344C307.527 596.152 307.659 596.014 307.839 595.93C308.031 595.846 308.253 595.864 308.505 595.984C308.985 596.212 309.435 596.374 309.855 596.47C310.275 596.554 310.689 596.596 311.097 596.596C311.673 596.596 312.099 596.5 312.375 596.308C312.663 596.104 312.807 595.84 312.807 595.516C312.807 595.012 312.435 594.688 311.691 594.544L309.891 594.202C308.367 593.914 307.605 593.122 307.605 591.826C307.605 591.25 307.761 590.752 308.073 590.332C308.397 589.912 308.841 589.588 309.405 589.36C309.969 589.132 310.617 589.018 311.349 589.018C312.405 589.018 313.347 589.252 314.175 589.72C314.403 589.84 314.535 590.008 314.571 590.224C314.619 590.428 314.595 590.626 314.499 590.818C314.415 590.998 314.277 591.13 314.085 591.214C313.893 591.286 313.671 591.262 313.419 591.142C313.047 590.95 312.687 590.812 312.339 590.728C312.003 590.644 311.679 590.602 311.367 590.602C310.779 590.602 310.341 590.704 310.053 590.908C309.777 591.112 309.639 591.382 309.639 591.718C309.639 592.246 309.981 592.57 310.665 592.69L312.465 593.032C313.245 593.176 313.833 593.44 314.229 593.824C314.637 594.208 314.841 594.724 314.841 595.372C314.841 596.248 314.499 596.938 313.815 597.442C313.131 597.934 312.219 598.18 311.079 598.18ZM320.79 598.18C318.462 598.18 317.298 597.028 317.298 594.724V590.89H316.362C315.762 590.89 315.462 590.608 315.462 590.044C315.462 589.48 315.762 589.198 316.362 589.198H317.298V587.56C317.298 586.804 317.676 586.426 318.432 586.426C319.176 586.426 319.548 586.804 319.548 587.56V589.198H321.456C322.056 589.198 322.356 589.48 322.356 590.044C322.356 590.608 322.056 590.89 321.456 590.89H319.548V594.598C319.548 595.174 319.674 595.606 319.926 595.894C320.178 596.182 320.586 596.326 321.15 596.326C321.354 596.326 321.534 596.308 321.69 596.272C321.846 596.236 321.984 596.212 322.104 596.2C322.248 596.188 322.368 596.236 322.464 596.344C322.56 596.44 322.608 596.644 322.608 596.956C322.608 597.196 322.566 597.412 322.482 597.604C322.41 597.784 322.272 597.91 322.068 597.982C321.912 598.03 321.708 598.072 321.456 598.108C321.204 598.156 320.982 598.18 320.79 598.18ZM328.117 598.18C327.121 598.18 326.263 597.994 325.543 597.622C324.823 597.25 324.265 596.722 323.869 596.038C323.485 595.354 323.293 594.544 323.293 593.608C323.293 592.696 323.479 591.898 323.851 591.214C324.235 590.53 324.757 589.996 325.417 589.612C326.089 589.216 326.851 589.018 327.703 589.018C328.951 589.018 329.935 589.414 330.655 590.206C331.387 590.998 331.753 592.078 331.753 593.446C331.753 593.89 331.465 594.112 330.889 594.112H325.453C325.621 595.684 326.521 596.47 328.153 596.47C328.465 596.47 328.813 596.434 329.197 596.362C329.593 596.278 329.965 596.14 330.313 595.948C330.625 595.768 330.889 595.714 331.105 595.786C331.321 595.846 331.471 595.972 331.555 596.164C331.651 596.356 331.663 596.572 331.591 596.812C331.531 597.04 331.363 597.238 331.087 597.406C330.667 597.67 330.181 597.868 329.629 598C329.089 598.12 328.585 598.18 328.117 598.18ZM327.793 590.548C327.133 590.548 326.599 590.752 326.191 591.16C325.783 591.568 325.537 592.12 325.453 592.816H329.881C329.833 592.084 329.629 591.526 329.269 591.142C328.921 590.746 328.429 590.548 327.793 590.548ZM334.152 598C333.84 598 333.606 597.904 333.45 597.712C333.294 597.508 333.228 597.268 333.252 596.992C333.276 596.716 333.402 596.452 333.63 596.2L337.86 590.89H334.044C333.468 590.89 333.18 590.608 333.18 590.044C333.18 589.48 333.468 589.198 334.044 589.198H339.372C339.732 589.198 339.996 589.294 340.164 589.486C340.344 589.678 340.422 589.912 340.398 590.188C340.386 590.452 340.266 590.71 340.038 590.962L335.754 596.308H339.786C340.362 596.308 340.65 596.59 340.65 597.154C340.65 597.718 340.362 598 339.786 598H334.152ZM345.147 598.18C344.511 598.18 343.941 598.06 343.437 597.82C342.945 597.568 342.555 597.232 342.267 596.812C341.991 596.392 341.853 595.918 341.853 595.39C341.853 594.742 342.021 594.232 342.357 593.86C342.693 593.476 343.239 593.2 343.995 593.032C344.751 592.864 345.765 592.78 347.037 592.78H347.667V592.402C347.667 591.802 347.535 591.37 347.271 591.106C347.007 590.842 346.563 590.71 345.939 590.71C345.591 590.71 345.213 590.752 344.805 590.836C344.409 590.92 343.989 591.064 343.545 591.268C343.257 591.4 343.017 591.418 342.825 591.322C342.633 591.214 342.501 591.052 342.429 590.836C342.369 590.608 342.381 590.38 342.465 590.152C342.561 589.924 342.747 589.756 343.023 589.648C343.575 589.42 344.103 589.258 344.607 589.162C345.123 589.066 345.591 589.018 346.011 589.018C347.295 589.018 348.249 589.318 348.873 589.918C349.497 590.506 349.809 591.424 349.809 592.672V596.992C349.809 597.76 349.461 598.144 348.765 598.144C348.057 598.144 347.703 597.76 347.703 596.992V596.596C347.499 597.088 347.175 597.478 346.731 597.766C346.287 598.042 345.759 598.18 345.147 598.18ZM345.615 596.632C346.203 596.632 346.689 596.428 347.073 596.02C347.469 595.612 347.667 595.096 347.667 594.472V594.076H347.055C345.927 594.076 345.141 594.166 344.697 594.346C344.265 594.514 344.049 594.826 344.049 595.282C344.049 595.678 344.187 596.002 344.463 596.254C344.739 596.506 345.123 596.632 345.615 596.632Z" fill="#212121"/>
<path d="M473.951 598.144C473.531 598.144 473.231 598 473.051 597.712C472.871 597.424 472.877 597.076 473.069 596.668L477.821 586.138C477.977 585.79 478.163 585.544 478.379 585.4C478.607 585.244 478.865 585.166 479.153 585.166C479.429 585.166 479.675 585.244 479.891 585.4C480.119 585.544 480.311 585.79 480.467 586.138L485.237 596.668C485.429 597.088 485.441 597.442 485.273 597.73C485.105 598.006 484.817 598.144 484.409 598.144C484.073 598.144 483.809 598.066 483.617 597.91C483.437 597.742 483.275 597.49 483.131 597.154L482.231 595.066H476.039L475.157 597.154C475.001 597.502 474.839 597.754 474.671 597.91C474.503 598.066 474.263 598.144 473.951 598.144ZM479.117 587.812L476.831 593.23H481.439L479.153 587.812H479.117ZM490.258 598.144C489.658 598.144 489.214 597.826 488.926 597.19L486.064 590.548C485.896 590.152 485.89 589.804 486.046 589.504C486.214 589.204 486.544 589.054 487.036 589.054C487.312 589.054 487.534 589.12 487.702 589.252C487.87 589.372 488.02 589.606 488.152 589.954L490.312 595.354L492.544 589.936C492.676 589.6 492.826 589.372 492.994 589.252C493.174 589.12 493.414 589.054 493.714 589.054C494.098 589.054 494.368 589.204 494.524 589.504C494.68 589.804 494.674 590.146 494.506 590.53L491.59 597.19C491.326 597.826 490.882 598.144 490.258 598.144ZM500.548 598.18C499.552 598.18 498.694 597.994 497.974 597.622C497.254 597.25 496.696 596.722 496.3 596.038C495.916 595.354 495.724 594.544 495.724 593.608C495.724 592.696 495.91 591.898 496.282 591.214C496.666 590.53 497.188 589.996 497.848 589.612C498.52 589.216 499.282 589.018 500.134 589.018C501.382 589.018 502.366 589.414 503.086 590.206C503.818 590.998 504.184 592.078 504.184 593.446C504.184 593.89 503.896 594.112 503.32 594.112H497.884C498.052 595.684 498.952 596.47 500.584 596.47C500.896 596.47 501.244 596.434 501.628 596.362C502.024 596.278 502.396 596.14 502.744 595.948C503.056 595.768 503.32 595.714 503.536 595.786C503.752 595.846 503.902 595.972 503.986 596.164C504.082 596.356 504.094 596.572 504.022 596.812C503.962 597.04 503.794 597.238 503.518 597.406C503.098 597.67 502.612 597.868 502.06 598C501.52 598.12 501.016 598.18 500.548 598.18ZM500.224 590.548C499.564 590.548 499.03 590.752 498.622 591.16C498.214 591.568 497.968 592.12 497.884 592.816H502.312C502.264 592.084 502.06 591.526 501.7 591.142C501.352 590.746 500.86 590.548 500.224 590.548ZM507.318 598.144C506.55 598.144 506.166 597.76 506.166 596.992V590.188C506.166 589.432 506.532 589.054 507.264 589.054C507.996 589.054 508.362 589.432 508.362 590.188V590.746C508.794 589.714 509.718 589.138 511.134 589.018C511.65 588.958 511.938 589.252 511.998 589.9C512.058 590.536 511.746 590.89 511.062 590.962L510.666 590.998C509.19 591.142 508.452 591.898 508.452 593.266V596.992C508.452 597.76 508.074 598.144 507.318 598.144ZM516.549 598.18C516.033 598.18 515.487 598.126 514.911 598.018C514.335 597.91 513.819 597.724 513.363 597.46C513.111 597.316 512.955 597.142 512.895 596.938C512.835 596.722 512.841 596.524 512.913 596.344C512.997 596.152 513.129 596.014 513.309 595.93C513.501 595.846 513.723 595.864 513.975 595.984C514.455 596.212 514.905 596.374 515.325 596.47C515.745 596.554 516.159 596.596 516.567 596.596C517.143 596.596 517.569 596.5 517.845 596.308C518.133 596.104 518.277 595.84 518.277 595.516C518.277 595.012 517.905 594.688 517.161 594.544L515.361 594.202C513.837 593.914 513.075 593.122 513.075 591.826C513.075 591.25 513.231 590.752 513.543 590.332C513.867 589.912 514.311 589.588 514.875 589.36C515.439 589.132 516.087 589.018 516.819 589.018C517.875 589.018 518.817 589.252 519.645 589.72C519.873 589.84 520.005 590.008 520.041 590.224C520.089 590.428 520.065 590.626 519.969 590.818C519.885 590.998 519.747 591.13 519.555 591.214C519.363 591.286 519.141 591.262 518.889 591.142C518.517 590.95 518.157 590.812 517.809 590.728C517.473 590.644 517.149 590.602 516.837 590.602C516.249 590.602 515.811 590.704 515.523 590.908C515.247 591.112 515.109 591.382 515.109 591.718C515.109 592.246 515.451 592.57 516.135 592.69L517.935 593.032C518.715 593.176 519.303 593.44 519.699 593.824C520.107 594.208 520.311 594.724 520.311 595.372C520.311 596.248 519.969 596.938 519.285 597.442C518.601 597.934 517.689 598.18 516.549 598.18ZM525.214 598.18C524.578 598.18 524.008 598.06 523.504 597.82C523.012 597.568 522.622 597.232 522.334 596.812C522.058 596.392 521.92 595.918 521.92 595.39C521.92 594.742 522.088 594.232 522.424 593.86C522.76 593.476 523.306 593.2 524.062 593.032C524.818 592.864 525.832 592.78 527.104 592.78H527.734V592.402C527.734 591.802 527.602 591.37 527.338 591.106C527.074 590.842 526.63 590.71 526.006 590.71C525.658 590.71 525.28 590.752 524.872 590.836C524.476 590.92 524.056 591.064 523.612 591.268C523.324 591.4 523.084 591.418 522.892 591.322C522.7 591.214 522.568 591.052 522.496 590.836C522.436 590.608 522.448 590.38 522.532 590.152C522.628 589.924 522.814 589.756 523.09 589.648C523.642 589.42 524.17 589.258 524.674 589.162C525.19 589.066 525.658 589.018 526.078 589.018C527.362 589.018 528.316 589.318 528.94 589.918C529.564 590.506 529.876 591.424 529.876 592.672V596.992C529.876 597.76 529.528 598.144 528.832 598.144C528.124 598.144 527.77 597.76 527.77 596.992V596.596C527.566 597.088 527.242 597.478 526.798 597.766C526.354 598.042 525.826 598.18 525.214 598.18ZM525.682 596.632C526.27 596.632 526.756 596.428 527.14 596.02C527.536 595.612 527.734 595.096 527.734 594.472V594.076H527.122C525.994 594.076 525.208 594.166 524.764 594.346C524.332 594.514 524.116 594.826 524.116 595.282C524.116 595.678 524.254 596.002 524.53 596.254C524.806 596.506 525.19 596.632 525.682 596.632ZM523.234 587.542C523.054 587.53 522.916 587.47 522.82 587.362C522.724 587.254 522.7 587.086 522.748 586.858C522.808 586.522 522.916 586.198 523.072 585.886C523.24 585.562 523.468 585.292 523.756 585.076C524.044 584.86 524.404 584.752 524.836 584.752C525.136 584.752 525.4 584.812 525.628 584.932C525.856 585.052 526.066 585.19 526.258 585.346C526.45 585.502 526.642 585.64 526.834 585.76C527.026 585.88 527.236 585.94 527.464 585.94C527.716 585.94 527.932 585.856 528.112 585.688C528.304 585.508 528.424 585.286 528.472 585.022C528.532 584.746 528.742 584.614 529.102 584.626C529.282 584.638 529.42 584.698 529.516 584.806C529.612 584.914 529.636 585.082 529.588 585.31C529.528 585.634 529.414 585.958 529.246 586.282C529.078 586.606 528.85 586.876 528.562 587.092C528.286 587.308 527.932 587.416 527.5 587.416C527.2 587.416 526.936 587.356 526.708 587.236C526.48 587.116 526.264 586.978 526.06 586.822C525.868 586.666 525.676 586.528 525.484 586.408C525.292 586.288 525.088 586.228 524.872 586.228C524.62 586.228 524.404 586.312 524.224 586.48C524.044 586.648 523.924 586.87 523.864 587.146C523.804 587.422 523.594 587.554 523.234 587.542ZM536.374 598.18C535.462 598.18 534.67 597.994 533.998 597.622C533.326 597.25 532.804 596.722 532.432 596.038C532.06 595.342 531.874 594.526 531.874 593.59C531.874 592.654 532.06 591.844 532.432 591.16C532.804 590.476 533.326 589.948 533.998 589.576C534.67 589.204 535.462 589.018 536.374 589.018C537.286 589.018 538.078 589.204 538.75 589.576C539.422 589.948 539.944 590.476 540.316 591.16C540.688 591.844 540.874 592.654 540.874 593.59C540.874 594.526 540.688 595.342 540.316 596.038C539.944 596.722 539.422 597.25 538.75 597.622C538.078 597.994 537.286 598.18 536.374 598.18ZM536.374 596.47C537.046 596.47 537.586 596.23 537.994 595.75C538.402 595.258 538.606 594.538 538.606 593.59C538.606 592.63 538.402 591.916 537.994 591.448C537.586 590.968 537.046 590.728 536.374 590.728C535.702 590.728 535.162 590.968 534.754 591.448C534.346 591.916 534.142 592.63 534.142 593.59C534.142 594.538 534.346 595.258 534.754 595.75C535.162 596.23 535.702 596.47 536.374 596.47Z" fill="#212121"/>
<path d="M655.801 598.144C655.009 598.144 654.613 597.736 654.613 596.92V586.534C654.613 585.718 655.021 585.31 655.837 585.31H662.119C662.743 585.31 663.055 585.61 663.055 586.21C663.055 586.834 662.743 587.146 662.119 587.146H656.917V590.728H661.741C662.365 590.728 662.677 591.028 662.677 591.628C662.677 592.252 662.365 592.564 661.741 592.564H656.917V596.92C656.917 597.736 656.545 598.144 655.801 598.144ZM668.726 598.18C667.73 598.18 666.872 597.994 666.152 597.622C665.432 597.25 664.874 596.722 664.478 596.038C664.094 595.354 663.902 594.544 663.902 593.608C663.902 592.696 664.088 591.898 664.46 591.214C664.844 590.53 665.366 589.996 666.026 589.612C666.698 589.216 667.46 589.018 668.312 589.018C669.56 589.018 670.544 589.414 671.264 590.206C671.996 590.998 672.362 592.078 672.362 593.446C672.362 593.89 672.074 594.112 671.498 594.112H666.062C666.23 595.684 667.13 596.47 668.762 596.47C669.074 596.47 669.422 596.434 669.806 596.362C670.202 596.278 670.574 596.14 670.922 595.948C671.234 595.768 671.498 595.714 671.714 595.786C671.93 595.846 672.08 595.972 672.164 596.164C672.26 596.356 672.272 596.572 672.2 596.812C672.14 597.04 671.972 597.238 671.696 597.406C671.276 597.67 670.79 597.868 670.238 598C669.698 598.12 669.194 598.18 668.726 598.18ZM668.402 590.548C667.742 590.548 667.208 590.752 666.8 591.16C666.392 591.568 666.146 592.12 666.062 592.816H670.49C670.442 592.084 670.238 591.526 669.878 591.142C669.53 590.746 669.038 590.548 668.402 590.548ZM677.35 598.18C675.346 598.18 674.344 597.058 674.344 594.814V586.3C674.344 585.544 674.716 585.166 675.46 585.166C676.216 585.166 676.594 585.544 676.594 586.3V594.706C676.594 595.786 677.044 596.326 677.944 596.326C678.04 596.326 678.13 596.326 678.214 596.326C678.298 596.314 678.382 596.302 678.466 596.29C678.634 596.266 678.748 596.314 678.808 596.434C678.868 596.542 678.898 596.77 678.898 597.118C678.898 597.418 678.838 597.652 678.718 597.82C678.598 597.988 678.4 598.09 678.124 598.126C677.872 598.162 677.614 598.18 677.35 598.18ZM681.408 587.398C680.988 587.398 680.658 587.296 680.418 587.092C680.19 586.876 680.076 586.582 680.076 586.21C680.076 585.826 680.19 585.532 680.418 585.328C680.658 585.124 680.988 585.022 681.408 585.022C682.296 585.022 682.74 585.418 682.74 586.21C682.74 587.002 682.296 587.398 681.408 587.398ZM681.408 598.126C681.048 598.126 680.772 598.018 680.58 597.802C680.388 597.586 680.292 597.286 680.292 596.902V590.296C680.292 589.48 680.664 589.072 681.408 589.072C682.164 589.072 682.542 589.48 682.542 590.296V596.902C682.542 597.286 682.446 597.586 682.254 597.802C682.062 598.018 681.78 598.126 681.408 598.126ZM689.148 598.18C688.224 598.18 687.42 597.994 686.736 597.622C686.052 597.238 685.524 596.698 685.152 596.002C684.78 595.306 684.594 594.49 684.594 593.554C684.594 592.618 684.78 591.814 685.152 591.142C685.524 590.458 686.052 589.936 686.736 589.576C687.42 589.204 688.224 589.018 689.148 589.018C689.544 589.018 689.97 589.072 690.426 589.18C690.894 589.288 691.332 589.468 691.74 589.72C691.98 589.864 692.118 590.05 692.154 590.278C692.202 590.506 692.172 590.716 692.064 590.908C691.968 591.1 691.818 591.238 691.614 591.322C691.422 591.406 691.2 591.376 690.948 591.232C690.396 590.92 689.862 590.764 689.346 590.764C688.566 590.764 687.96 591.01 687.528 591.502C687.108 591.982 686.898 592.672 686.898 593.572C686.898 594.46 687.108 595.162 687.528 595.678C687.96 596.182 688.566 596.434 689.346 596.434C689.862 596.434 690.396 596.284 690.948 595.984C691.2 595.84 691.422 595.81 691.614 595.894C691.806 595.978 691.944 596.122 692.028 596.326C692.112 596.518 692.13 596.728 692.082 596.956C692.034 597.172 691.896 597.352 691.668 597.496C691.272 597.736 690.852 597.91 690.408 598.018C689.964 598.126 689.544 598.18 689.148 598.18ZM694.886 587.398C694.466 587.398 694.136 587.296 693.896 587.092C693.668 586.876 693.554 586.582 693.554 586.21C693.554 585.826 693.668 585.532 693.896 585.328C694.136 585.124 694.466 585.022 694.886 585.022C695.774 585.022 696.218 585.418 696.218 586.21C696.218 587.002 695.774 587.398 694.886 587.398ZM694.886 598.126C694.526 598.126 694.25 598.018 694.058 597.802C693.866 597.586 693.77 597.286 693.77 596.902V590.296C693.77 589.48 694.142 589.072 694.886 589.072C695.642 589.072 696.02 589.48 696.02 590.296V596.902C696.02 597.286 695.924 597.586 695.732 597.802C695.54 598.018 695.258 598.126 694.886 598.126ZM701.942 598.18C701.174 598.18 700.496 597.994 699.908 597.622C699.332 597.25 698.882 596.722 698.558 596.038C698.234 595.342 698.072 594.526 698.072 593.59C698.072 592.642 698.234 591.832 698.558 591.16C698.882 590.476 699.332 589.948 699.908 589.576C700.496 589.204 701.174 589.018 701.942 589.018C702.566 589.018 703.13 589.156 703.634 589.432C704.138 589.708 704.516 590.074 704.768 590.53V586.3C704.768 585.544 705.14 585.166 705.884 585.166C706.64 585.166 707.018 585.544 707.018 586.3V596.992C707.018 597.76 706.646 598.144 705.902 598.144C705.158 598.144 704.786 597.76 704.786 596.992V596.614C704.534 597.094 704.156 597.478 703.652 597.766C703.148 598.042 702.578 598.18 701.942 598.18ZM702.572 596.47C703.244 596.47 703.784 596.23 704.192 595.75C704.6 595.258 704.804 594.538 704.804 593.59C704.804 592.63 704.6 591.916 704.192 591.448C703.784 590.968 703.244 590.728 702.572 590.728C701.9 590.728 701.36 590.968 700.952 591.448C700.544 591.916 700.34 592.63 700.34 593.59C700.34 594.538 700.544 595.258 700.952 595.75C701.36 596.23 701.9 596.47 702.572 596.47ZM712.449 598.18C711.813 598.18 711.243 598.06 710.739 597.82C710.247 597.568 709.857 597.232 709.569 596.812C709.293 596.392 709.155 595.918 709.155 595.39C709.155 594.742 709.323 594.232 709.659 593.86C709.995 593.476 710.541 593.2 711.297 593.032C712.053 592.864 713.067 592.78 714.339 592.78H714.969V592.402C714.969 591.802 714.837 591.37 714.573 591.106C714.309 590.842 713.865 590.71 713.241 590.71C712.893 590.71 712.515 590.752 712.107 590.836C711.711 590.92 711.291 591.064 710.847 591.268C710.559 591.4 710.319 591.418 710.127 591.322C709.935 591.214 709.803 591.052 709.731 590.836C709.671 590.608 709.683 590.38 709.767 590.152C709.863 589.924 710.049 589.756 710.325 589.648C710.877 589.42 711.405 589.258 711.909 589.162C712.425 589.066 712.893 589.018 713.313 589.018C714.597 589.018 715.551 589.318 716.175 589.918C716.799 590.506 717.111 591.424 717.111 592.672V596.992C717.111 597.76 716.763 598.144 716.067 598.144C715.359 598.144 715.005 597.76 715.005 596.992V596.596C714.801 597.088 714.477 597.478 714.033 597.766C713.589 598.042 713.061 598.18 712.449 598.18ZM712.917 596.632C713.505 596.632 713.991 596.428 714.375 596.02C714.771 595.612 714.969 595.096 714.969 594.472V594.076H714.357C713.229 594.076 712.443 594.166 711.999 594.346C711.567 594.514 711.351 594.826 711.351 595.282C711.351 595.678 711.489 596.002 711.765 596.254C712.041 596.506 712.425 596.632 712.917 596.632ZM722.978 598.18C722.21 598.18 721.532 597.994 720.944 597.622C720.368 597.25 719.918 596.722 719.594 596.038C719.27 595.342 719.108 594.526 719.108 593.59C719.108 592.642 719.27 591.832 719.594 591.16C719.918 590.476 720.368 589.948 720.944 589.576C721.532 589.204 722.21 589.018 722.978 589.018C723.602 589.018 724.166 589.156 724.67 589.432C725.174 589.708 725.552 590.074 725.804 590.53V586.3C725.804 585.544 726.176 585.166 726.92 585.166C727.676 585.166 728.054 585.544 728.054 586.3V596.992C728.054 597.76 727.682 598.144 726.938 598.144C726.194 598.144 725.822 597.76 725.822 596.992V596.614C725.57 597.094 725.192 597.478 724.688 597.766C724.184 598.042 723.614 598.18 722.978 598.18ZM723.608 596.47C724.28 596.47 724.82 596.23 725.228 595.75C725.636 595.258 725.84 594.538 725.84 593.59C725.84 592.63 725.636 591.916 725.228 591.448C724.82 590.968 724.28 590.728 723.608 590.728C722.936 590.728 722.396 590.968 721.988 591.448C721.58 591.916 721.376 592.63 721.376 593.59C721.376 594.538 721.58 595.258 721.988 595.75C722.396 596.23 722.936 596.47 723.608 596.47ZM734.925 598.18C733.929 598.18 733.071 597.994 732.351 597.622C731.631 597.25 731.073 596.722 730.677 596.038C730.293 595.354 730.101 594.544 730.101 593.608C730.101 592.696 730.287 591.898 730.659 591.214C731.043 590.53 731.565 589.996 732.225 589.612C732.897 589.216 733.659 589.018 734.511 589.018C735.759 589.018 736.743 589.414 737.463 590.206C738.195 590.998 738.561 592.078 738.561 593.446C738.561 593.89 738.273 594.112 737.697 594.112H732.261C732.429 595.684 733.329 596.47 734.961 596.47C735.273 596.47 735.621 596.434 736.005 596.362C736.401 596.278 736.773 596.14 737.121 595.948C737.433 595.768 737.697 595.714 737.913 595.786C738.129 595.846 738.279 595.972 738.363 596.164C738.459 596.356 738.471 596.572 738.399 596.812C738.339 597.04 738.171 597.238 737.895 597.406C737.475 597.67 736.989 597.868 736.437 598C735.897 598.12 735.393 598.18 734.925 598.18ZM734.601 590.548C733.941 590.548 733.407 590.752 732.999 591.16C732.591 591.568 732.345 592.12 732.261 592.816H736.689C736.641 592.084 736.437 591.526 736.077 591.142C735.729 590.746 735.237 590.548 734.601 590.548Z" fill="#212121"/>
<path d="M864.293 598.144C863.597 598.144 863.249 597.784 863.249 597.064V586.246C863.249 585.526 863.609 585.166 864.329 585.166C864.629 585.166 864.863 585.226 865.031 585.346C865.211 585.454 865.373 585.646 865.517 585.922L869.675 593.608L873.833 585.922C873.977 585.646 874.133 585.454 874.301 585.346C874.469 585.226 874.703 585.166 875.003 585.166C875.699 585.166 876.047 585.526 876.047 586.246V597.064C876.047 597.784 875.699 598.144 875.003 598.144C874.307 598.144 873.959 597.784 873.959 597.064V589.45L870.575 595.624C870.455 595.828 870.329 595.978 870.197 596.074C870.065 596.17 869.885 596.218 869.657 596.218C869.429 596.218 869.243 596.17 869.099 596.074C868.955 595.966 868.829 595.816 868.721 595.624L865.337 589.486V597.064C865.337 597.784 864.989 598.144 864.293 598.144ZM883.162 598.18C882.166 598.18 881.308 597.994 880.588 597.622C879.868 597.25 879.31 596.722 878.914 596.038C878.53 595.354 878.338 594.544 878.338 593.608C878.338 592.696 878.524 591.898 878.896 591.214C879.28 590.53 879.802 589.996 880.462 589.612C881.134 589.216 881.896 589.018 882.748 589.018C883.996 589.018 884.98 589.414 885.7 590.206C886.432 590.998 886.798 592.078 886.798 593.446C886.798 593.89 886.51 594.112 885.934 594.112H880.498C880.666 595.684 881.566 596.47 883.198 596.47C883.51 596.47 883.858 596.434 884.242 596.362C884.638 596.278 885.01 596.14 885.358 595.948C885.67 595.768 885.934 595.714 886.15 595.786C886.366 595.846 886.516 595.972 886.6 596.164C886.696 596.356 886.708 596.572 886.636 596.812C886.576 597.04 886.408 597.238 886.132 597.406C885.712 597.67 885.226 597.868 884.674 598C884.134 598.12 883.63 598.18 883.162 598.18ZM882.838 590.548C882.178 590.548 881.644 590.752 881.236 591.16C880.828 591.568 880.582 592.12 880.498 592.816H884.926C884.878 592.084 884.674 591.526 884.314 591.142C883.966 590.746 883.474 590.548 882.838 590.548ZM892.163 598.18C891.395 598.18 890.717 597.994 890.129 597.622C889.553 597.25 889.103 596.722 888.779 596.038C888.455 595.342 888.293 594.526 888.293 593.59C888.293 592.642 888.455 591.832 888.779 591.16C889.103 590.476 889.553 589.948 890.129 589.576C890.717 589.204 891.395 589.018 892.163 589.018C892.787 589.018 893.351 589.156 893.855 589.432C894.359 589.708 894.737 590.074 894.989 590.53V586.3C894.989 585.544 895.361 585.166 896.105 585.166C896.861 585.166 897.239 585.544 897.239 586.3V596.992C897.239 597.76 896.867 598.144 896.123 598.144C895.379 598.144 895.007 597.76 895.007 596.992V596.614C894.755 597.094 894.377 597.478 893.873 597.766C893.369 598.042 892.799 598.18 892.163 598.18ZM892.793 596.47C893.465 596.47 894.005 596.23 894.413 595.75C894.821 595.258 895.025 594.538 895.025 593.59C895.025 592.63 894.821 591.916 894.413 591.448C894.005 590.968 893.465 590.728 892.793 590.728C892.121 590.728 891.581 590.968 891.173 591.448C890.765 591.916 890.561 592.63 890.561 593.59C890.561 594.538 890.765 595.258 891.173 595.75C891.581 596.23 892.121 596.47 892.793 596.47ZM903.786 598.18C902.874 598.18 902.082 597.994 901.41 597.622C900.738 597.25 900.216 596.722 899.844 596.038C899.472 595.342 899.286 594.526 899.286 593.59C899.286 592.654 899.472 591.844 899.844 591.16C900.216 590.476 900.738 589.948 901.41 589.576C902.082 589.204 902.874 589.018 903.786 589.018C904.698 589.018 905.49 589.204 906.162 589.576C906.834 589.948 907.356 590.476 907.728 591.16C908.1 591.844 908.286 592.654 908.286 593.59C908.286 594.526 908.1 595.342 907.728 596.038C907.356 596.722 906.834 597.25 906.162 597.622C905.49 597.994 904.698 598.18 903.786 598.18ZM903.786 596.47C904.458 596.47 904.998 596.23 905.406 595.75C905.814 595.258 906.018 594.538 906.018 593.59C906.018 592.63 905.814 591.916 905.406 591.448C904.998 590.968 904.458 590.728 903.786 590.728C903.114 590.728 902.574 590.968 902.166 591.448C901.758 591.916 901.554 592.63 901.554 593.59C901.554 594.538 901.758 595.258 902.166 595.75C902.574 596.23 903.114 596.47 903.786 596.47Z" fill="#212121"/>
</svg>
