<svg width="32" height="32" viewBox="0 0 32 32" fill="none" xmlns="http://www.w3.org/2000/svg">
<path fill-rule="evenodd" clip-rule="evenodd" d="M16 3.6665C13.6068 3.6665 11.6667 5.6066 11.6667 7.99984C11.6667 10.3931 13.6068 12.3332 16 12.3332C18.3933 12.3332 20.3334 10.3931 20.3334 7.99984C20.3334 5.6066 18.3933 3.6665 16 3.6665ZM9.66669 7.99984C9.66669 4.50203 12.5022 1.6665 16 1.6665C19.4978 1.6665 22.3334 4.50203 22.3334 7.99984C22.3334 11.4976 19.4978 14.3332 16 14.3332C12.5022 14.3332 9.66669 11.4976 9.66669 7.99984Z" fill="#AA6F34"/>
<path fill-rule="evenodd" clip-rule="evenodd" d="M3 29.3335C3 22.1538 8.82032 16.3335 16 16.3335C23.1797 16.3335 29 22.1538 29 29.3335C29 29.8858 28.5523 30.3335 28 30.3335C27.4477 30.3335 27 29.8858 27 29.3335C27 23.2584 22.0751 18.3335 16 18.3335C9.92488 18.3335 5 23.2584 5 29.3335C5 29.8858 4.55228 30.3335 4 30.3335C3.44772 30.3335 3 29.8858 3 29.3335Z" fill="#AA6F34"/>
</svg>
