<svg width="32" height="32" viewBox="0 0 32 32" fill="none" xmlns="http://www.w3.org/2000/svg">
<path fill-rule="evenodd" clip-rule="evenodd" d="M3 4C3 3.44772 3.44772 3 4 3H15.9945C16.5468 3 16.9945 3.44772 16.9945 4C16.9945 4.55228 16.5468 5 15.9945 5H5V27H16C16.5523 27 17 27.4477 17 28C17 28.5523 16.5523 29 16 29H4C3.44772 29 3 28.5523 3 28V4Z" fill="#AA6F34"/>
<path fill-rule="evenodd" clip-rule="evenodd" d="M21.2929 9.29289C21.6834 8.90237 22.3166 8.90237 22.7071 9.29289L28.7071 15.2929C29.0976 15.6834 29.0976 16.3166 28.7071 16.7071L22.7071 22.7071C22.3166 23.0976 21.6834 23.0976 21.2929 22.7071C20.9024 22.3166 20.9024 21.6834 21.2929 21.2929L26.5858 16L21.2929 10.7071C20.9024 10.3166 20.9024 9.68342 21.2929 9.29289Z" fill="#AA6F34"/>
<path fill-rule="evenodd" clip-rule="evenodd" d="M9.66669 15.9944C9.66669 15.4421 10.1144 14.9944 10.6667 14.9944H28C28.5523 14.9944 29 15.4421 29 15.9944C29 16.5467 28.5523 16.9944 28 16.9944H10.6667C10.1144 16.9944 9.66669 16.5467 9.66669 15.9944Z" fill="#AA6F34"/>
</svg>
